#!OML:ASF I:\Random Stuff\random\construction\7_22_03\Session 2\subj1.ASF
:FULLY-SPECIFIED
:DEGREES
574
root -1.75521 17.7413 0.406845 -24.5923 84.5664 -31.0296
lowerback -0.543568 0.199536 1.03662
upperback -4.21184 0.392199 1.12786
thorax -4.03049 0.210846 0.567477
lowerneck -21.6262 -2.03456 0.977188
upperneck 31.7206 -4.07737 3.44156
head 14.6653 -0.890886 0.54168
rclavicle -4.08072e-015 -2.27049e-015
rhumerus 43.5651 11.0524 -70.8796
rradius 105.233
rwrist -48.0996
rhand -29.3979 7.55133
rfingers 7.12502
rthumb -2.73598 -22.4109
lclavicle -4.08072e-015 -2.27049e-015
lhumerus -40.96 -43.0313 111.077
lradius 66.3811
lwrist 50.0411
lhand -20.4199 64.8901
lfingers 7.12502
lthumb 5.93444 -94.787
rfemur -2.45011 16.3635 20.373
rtibia 4.19477
rfoot -1.88854 -21.2282
rtoes -17.8416
lfemur -10.2032 -16.3278 -12.982
ltibia 20.2814
lfoot -15.4497 16.8073
ltoes -28.2395
575
root -1.75728 17.7419 0.408637 -24.6133 84.5683 -31.0541
lowerback -0.524736 0.188926 1.00994
upperback -4.20604 0.377326 1.12533
thorax -4.03518 0.204152 0.580188
lowerneck -21.6774 -2.04787 0.873698
upperneck 31.7826 -4.08943 3.52575
head 14.7103 -0.893437 0.592393
rclavicle -2.40425e-015 9.93923e-017
rhumerus 43.4773 11.0715 -70.9293
rradius 105.219
rwrist -48.0628
rhand -29.3721 7.63034
rfingers 7.12502
rthumb -2.71111 -22.3322
lclavicle -2.40425e-015 9.93923e-017
lhumerus -40.8252 -42.8036 110.919
lradius 66.3362
lwrist 49.8361
lhand -20.4338 65.0793
lfingers 7.12502
lthumb 5.92103 -94.9766
rfemur -2.47876 16.3609 20.3767
rtibia 4.21821
rfoot -1.92502 -21.258
rtoes -17.7733
lfemur -10.2073 -16.4316 -12.963
ltibia 20.2689
lfoot -15.4972 16.9076
ltoes -28.0617
576
root -1.75788 17.7428 0.410124 -24.4872 84.561 -30.9214
lowerback -0.508943 0.187054 0.979067
upperback -4.19868 0.373774 1.11893
thorax -4.03654 0.203158 0.590941
lowerneck -21.7219 -2.04189 0.822103
upperneck 31.8371 -4.07735 3.56689
head 14.7473 -0.886048 0.621005
rclavicle -1.55728e-014 2.60905e-015
rhumerus 43.3863 11.1313 -70.9296
rradius 105.215
rwrist -48.0505
rhand -29.4198 7.90924
rfingers 7.12502
rthumb -2.75717 -22.0527
lclavicle -1.55728e-014 2.60905e-015
lhumerus -40.751 -42.7291 110.872
lradius 66.2373
lwrist 49.9282
lhand -20.8237 65.2753
lfingers 7.12502
lthumb 5.54458 -95.1827
rfemur -2.47105 16.3721 20.3604
rtibia 4.18775
rfoot -1.89239 -21.2446
rtoes -17.7084
lfemur -10.2026 -16.384 -12.9726
ltibia 20.27
lfoot -15.5086 16.8908
ltoes -28.0794
577
root -1.75794 17.7425 0.412433 -24.4494 84.5535 -30.8846
lowerback -0.527916 0.202512 0.96069
upperback -4.17773 0.392632 1.11176
thorax -4.00407 0.21292 0.593357
lowerneck -21.7967 -2.04569 0.81175
upperneck 31.8817 -4.07535 3.54504
head 14.7837 -0.8876 0.614155
rclavicle -7.90441e-015 1.87603e-015
rhumerus 43.3114 11.1627 -70.9006
rradius 105.241
rwrist -48.0317
rhand -29.5499 8.16343
rfingers 7.12502
rthumb -2.88281 -21.7968
lclavicle -7.90441e-015 1.87603e-015
lhumerus -40.6863 -42.7453 110.859
lradius 66.1416
lwrist 50.0546
lhand -21.0712 65.3747
lfingers 7.12502
lthumb 5.30557 -95.2883
rfemur -2.4576 16.3805 20.3608
rtibia 4.14374
rfoot -1.88309 -21.2243
rtoes -17.5255
lfemur -10.2083 -16.3218 -12.9673
ltibia 20.2822
lfoot -15.4993 16.7907
ltoes -27.7689
578
root -1.75818 17.7409 0.414655 -24.397 84.5608 -30.8236
lowerback -0.527794 0.207225 0.939956
upperback -4.16292 0.397474 1.10214
thorax -3.98876 0.215687 0.59493
lowerneck -21.8546 -2.06141 0.819355
upperneck 31.9526 -4.08554 3.49016
head 14.827 -0.896007 0.588736
rclavicle -1.40407e-014 -1.9133e-014
rhumerus 43.2257 11.1924 -70.9276
rradius 105.279
rwrist -47.8632
rhand -29.6308 8.2993
rfingers 7.12502
rthumb -2.96093 -21.6599
lclavicle -1.40407e-014 -1.9133e-014
lhumerus -40.6565 -42.7169 110.837
lradius 66.0701
lwrist 50.0444
lhand -21.0739 65.2807
lfingers 7.12502
lthumb 5.30304 -95.1943
rfemur -2.38207 16.377 20.3616
rtibia 3.99766
rfoot -1.7814 -21.2126
rtoes -17.6544
lfemur -10.2153 -16.3187 -12.9725
ltibia 20.3174
lfoot -15.4487 16.6963
ltoes -27.4173
579
root -1.75856 17.7397 0.415823 -24.3739 84.5605 -30.78
lowerback -0.488097 0.191337 0.928825
upperback -4.17405 0.377008 1.10424
thorax -4.02283 0.205844 0.603777
lowerneck -21.8251 -2.05653 0.81738
upperneck 31.993 -4.0588 3.4415
head 14.8365 -0.890823 0.574793
rclavicle 3.65422e-015 5.28022e-015
rhumerus 43.1316 11.2778 -70.9891
rradius 105.314
rwrist -47.7332
rhand -29.6278 8.33032
rfingers 7.12502
rthumb -2.95801 -21.6289
lclavicle 3.65422e-015 5.28022e-015
lhumerus -40.705 -42.6197 110.851
lradius 66.0242
lwrist 50.0398
lhand -21.0889 65.15
lfingers 7.12502
lthumb 5.28854 -95.064
rfemur -2.28297 16.3793 20.3658
rtibia 3.82652
rfoot -1.6404 -21.1971
rtoes -17.9229
lfemur -10.2113 -16.3153 -12.979
ltibia 20.3574
lfoot -15.4388 16.6836
ltoes -27.5758
580
root -1.75838 17.7396 0.417259 -24.4278 84.5409 -30.8161
lowerback -0.472128 0.191339 0.938502
upperback -4.17574 0.378126 1.12
thorax -4.03374 0.206388 0.614504
lowerneck -21.7633 -2.02714 0.853307
upperneck 31.9779 -3.99633 3.35853
head 14.8108 -0.873394 0.546311
rclavicle -5.3039e-015 7.21837e-015
rhumerus 43.0513 11.341 -70.9934
rradius 105.347
rwrist -47.7992
rhand -29.4649 8.42225
rfingers 7.12502
rthumb -2.80068 -21.5391
lclavicle -5.3039e-015 7.21837e-015
lhumerus -40.7548 -42.5416 110.905
lradius 66.0089
lwrist 49.9984
lhand -20.9753 65.1502
lfingers 7.12502
lthumb 5.39819 -95.0615
rfemur -2.24829 16.3959 20.3866
rtibia 3.78912
rfoot -1.6194 -21.1925
rtoes -17.8599
lfemur -10.1953 -16.2682 -12.9688
ltibia 20.3731
lfoot -15.4406 16.661
ltoes -27.6686
581
root -1.75819 17.7402 0.418717 -24.4927 84.5237 -30.865
lowerback -0.467866 0.21671 0.963779
upperback -4.15315 0.412001 1.12823
thorax -4.01271 0.222399 0.607795
lowerneck -21.8258 -2.04266 0.791571
upperneck 32.0221 -3.99107 3.33775
head 14.8453 -0.880077 0.549348
rclavicle -6.12078e-015 6.60338e-015
rhumerus 42.9977 11.3452 -70.944
rradius 105.364
rwrist -47.833
rhand -29.2322 8.63094
rfingers 7.12502
rthumb -2.57596 -21.3333
lclavicle -6.12078e-015 6.60338e-015
lhumerus -40.7901 -42.5753 110.995
lradius 66.0216
lwrist 50.0032
lhand -20.9154 65.2145
lfingers 7.12502
lthumb 5.45599 -95.1243
rfemur -2.23822 16.4098 20.4071
rtibia 3.81222
rfoot -1.68251 -21.2049
rtoes -17.6971
lfemur -10.1741 -16.2459 -12.9575
ltibia 20.3693
lfoot -15.4253 16.6788
ltoes -27.7935
582
root -1.75703 17.7394 0.419476 -24.457 84.4903 -30.8227
lowerback -0.484014 0.242932 0.994436
upperback -4.12695 0.446347 1.12844
thorax -3.97623 0.238328 0.589912
lowerneck -21.8641 -2.09022 0.768667
upperneck 32.0005 -3.99545 3.16695
head 14.8381 -0.912179 0.480649
rclavicle 2.95265e-015 -1.04113e-014
rhumerus 42.9643 11.361 -70.914
rradius 105.381
rwrist -47.6757
rhand -29.0885 8.7025
rfingers 7.12502
rthumb -2.43721 -21.2633
lclavicle 2.95265e-015 -1.04113e-014
lhumerus -40.8212 -42.6393 111.073
lradius 66.0235
lwrist 50.1023
lhand -21.0181 65.1959
lfingers 7.12502
lthumb 5.35686 -95.1082
rfemur -2.2217 16.4422 20.4236
rtibia 3.79498
rfoot -1.67881 -21.2031
rtoes -17.8317
lfemur -10.1482 -16.2701 -12.9436
ltibia 20.3587
lfoot -15.4581 16.7536
ltoes -27.8586
583
root -1.75416 17.7385 0.420586 -24.182 84.4351 -30.555
lowerback -0.551345 0.272848 1.00985
upperback -4.09796 0.484284 1.12287
thorax -3.9079 0.256629 0.574812
lowerneck -21.7639 -2.14119 0.876134
upperneck 31.8206 -3.97638 2.7875
head 14.7173 -0.957067 0.307192
rclavicle -9.78549e-015 -3.75206e-015
rhumerus 42.9394 11.3806 -70.8951
rradius 105.412
rwrist -47.3947
rhand -29.0689 8.78781
rfingers 7.12502
rthumb -2.41825 -21.1782
lclavicle -9.78549e-015 -3.75206e-015
lhumerus -40.8251 -42.6212 111.114
lradius 65.9898
lwrist 50.0966
lhand -21.0095 65.0951
lfingers 7.12502
lthumb 5.36518 -95.0072
rfemur -2.24095 16.5036 20.4269
rtibia 3.8138
rfoot -1.63068 -21.1721
rtoes -18.2098
lfemur -10.1161 -16.2672 -12.9404
ltibia 20.332
lfoot -15.4528 16.748
ltoes -27.3212
584
root -1.75343 17.7403 0.421487 -24.0237 84.447 -30.4002
lowerback -0.574939 0.27744 0.998208
upperback -4.08252 0.489033 1.11796
thorax -3.87852 0.259244 0.576296
lowerneck -21.6736 -2.13402 1.03634
upperneck 31.6916 -3.92298 2.49822
head 14.6244 -0.964192 0.170144
rclavicle -2.14606e-015 3.47873e-016
rhumerus 42.9066 11.4164 -70.8398
rradius 105.454
rwrist -47.1306
rhand -29.1733 9.01503
rfingers 7.12502
rthumb -2.51912 -20.9498
lclavicle -2.14606e-015 3.47873e-016
lhumerus -40.8234 -42.5161 111.153
lradius 65.9294
lwrist 50.0072
lhand -20.9316 65.024
lfingers 7.12502
lthumb 5.44039 -94.9342
rfemur -2.26462 16.4989 20.4103
rtibia 3.86923
rfoot -1.64463 -21.1729
rtoes -18.3576
lfemur -10.1076 -16.3162 -12.9565
ltibia 20.2974
lfoot -15.4446 16.739
ltoes -26.8054
585
root -1.75443 17.7431 0.421203 -24.1828 84.5271 -30.5597
lowerback -0.545028 0.249445 0.991124
upperback -4.0789 0.451744 1.11904
thorax -3.89162 0.240752 0.582282
lowerneck -21.7707 -2.10588 0.948428
upperneck 31.8144 -3.90696 2.65837
head 14.7089 -0.938434 0.254376
rclavicle -1.71012e-014 4.07819e-015
rhumerus 42.8793 11.4675 -70.771
rradius 105.503
rwrist -47.0405
rhand -29.3422 9.05854
rfingers 7.12502
rthumb -2.68223 -20.9043
lclavicle -1.71012e-014 4.07819e-015
lhumerus -40.8269 -42.3734 111.182
lradius 65.8877
lwrist 50.0009
lhand -20.97 64.9696
lfingers 7.12502
lthumb 5.40331 -94.8807
rfemur -2.25765 16.4197 20.3926
rtibia 3.89178
rfoot -1.72979 -21.2154
rtoes -17.8728
lfemur -10.1258 -16.438 -12.978
ltibia 20.2752
lfoot -15.4915 16.8024
ltoes -27.0814
586
root -1.75405 17.7436 0.420868 -24.2645 84.5745 -30.6484
lowerback -0.536177 0.234716 1.00203
upperback -4.07126 0.431827 1.11383
thorax -3.88851 0.230233 0.571348
lowerneck -21.9497 -2.09632 0.618785
upperneck 32.0444 -3.95389 3.17865
head 14.8801 -0.910034 0.518817
rclavicle -1.40359e-014 -1.73315e-015
rhumerus 42.8738 11.4956 -70.7262
rradius 105.564
rwrist -47.1619
rhand -29.478 9.02277
rfingers 7.12502
rthumb -2.81335 -20.9384
lclavicle -1.40359e-014 -1.73315e-015
lhumerus -40.8221 -42.2451 111.197
lradius 65.8715
lwrist 50.0855
lhand -21.079 64.9724
lfingers 7.12502
lthumb 5.29805 -94.8862
rfemur -2.26797 16.373 20.3794
rtibia 3.92039
rfoot -1.82038 -21.2387
rtoes -17.394
lfemur -10.1359 -16.5466 -12.9934
ltibia 20.261
lfoot -15.3904 16.7919
ltoes -26.488
587
root -1.75363 17.7409 0.420592 -24.2227 84.5952 -30.6121
lowerback -0.535995 0.220549 1.00831
upperback -4.06484 0.412363 1.10541
thorax -3.88176 0.220056 0.55972
lowerneck -21.9921 -2.06632 0.461186
upperneck 32.1116 -3.95057 3.46749
head 14.9341 -0.881369 0.667591
rclavicle -1.24581e-014 -5.92316e-015
rhumerus 42.8783 11.5186 -70.7268
rradius 105.622
rwrist -47.2742
rhand -29.4971 9.12259
rfingers 7.12502
rthumb -2.83174 -20.8384
lclavicle -1.24581e-014 -5.92316e-015
lhumerus -40.819 -42.1057 111.197
lradius 65.8766
lwrist 50.1632
lhand -21.1439 65.106
lfingers 7.12502
lthumb 5.23544 -95.0213
rfemur -2.29016 16.3552 20.3608
rtibia 3.94127
rfoot -1.81591 -21.2511
rtoes -17.5034
lfemur -10.1366 -16.6111 -13.0053
ltibia 20.2543
lfoot -15.3934 16.8245
ltoes -26.2699
